<?xml version="1.0" encoding="UTF-8"?>
<svg id="_シュナ" data-name="シュナ" xmlns="http://www.w3.org/2000/svg" width="50mm" height="50mm" viewBox="0 0 141.7323 141.7323">
  <path d="M70.9246,24.9561c-.9625-.0134-6.8004-.2823-13.4712,1.736-2.6557-2.993-6.5783-13.0579-12.9795-12.1749-4.139.5709-22.1547,9.392-26.7609,19.8387-1.5354,3.4823,3.6743,8.5795,5.7804,11.085,2.7593,3.2827,5.0628,6.1004,5.8041,8.4208.9478,2.9667,1.1871,10.0561-1.0942,15.89-3.0418,7.7785-7.7071,13.0593-7.4217,22.9787s8.3713,34.5394,50.143,34.5394c41.7717,0,49.8576-24.62,50.143-34.5394.2854-9.9194-4.3799-15.2002-7.4217-22.9787-2.2813-5.8339-2.0421-12.9233-1.0942-15.89.7413-2.3204,3.0448-5.1381,5.8041-8.4208,2.1061-2.5055,7.3158-7.6027,5.7804-11.085-4.6062-10.4468-22.6219-19.2678-26.7609-19.8387-6.4012-.8829-10.3238,9.182-12.9795,12.1749-6.6709-2.0183-12.5087-1.7226-13.4712-1.736Z" fill="#7a5439"/>
  <circle cx="87.0159" cy="62.3062" r="3.9963" fill="#231815"/>
  <path d="M88.3896,52.8447c4.3174-.2141,8.3672,3.2886,9.1165,4.0379s2.2122,2.355,3.9249,1.7841,2.4263-2.7118,1.4272-5.8874-4.7813-8.6348-11.3823-9.5626-10.7876,2.3609-13.0593,4.7159c-1.9036,1.9734-3.1399,4.2223-1.7603,6.0777s5.348-.849,11.7332-1.1656Z" fill="#fff"/>
  <circle cx="54.7164" cy="62.3062" r="3.9963" fill="#231815"/>
  <path d="M53.3427,52.8447c-4.3174-.2141-8.3672,3.2886-9.1165,4.0379s-2.2122,2.355-3.9249,1.7841-2.4263-2.7118-1.4272-5.8874,4.7813-8.6348,11.3823-9.5626,10.7876,2.3609,13.0593,4.7159c1.9036,1.9734,3.1399,4.2223,1.7603,6.0777s-5.348-.849-11.7332-1.1656Z" fill="#fff"/>
  <path d="M90.772,109.4127c-1.8572-1.6296-5.5474-6.485-7.4985-9.1185-.3043-.4107-.7478-.6958-1.2497-.7924-2.332-.4489-6.5214-1.725-9.0084-5.2674-.4194-.5974-.8596-1.3242-1.2621-2.0856-.3773-.7137-1.3971-.7137-1.7743,0-.4024.7614-.8426,1.4881-1.2621,2.0856-2.4871,3.5424-6.6765,4.8185-9.0085,5.2674-.5019.0966-.9454.3817-1.2496.7923-1.9519,2.6342-5.6429,7.4906-7.4985,9.1189-.0013.0011-.0026.0023-.0039.0034-.2322.2038-.2505.564-.0317.7821,4.3724,4.3566,11.7019,7.2165,20.0127,7.2165,8.2674,0,15.564-2.8299,19.9444-7.1481.2208-.2177.202-.5811-.0313-.7853-.0268-.0235-.0529-.0464-.0784-.0688Z" fill="#fff"/>
  <path d="M124.1362,34.3559c-4.6062-10.4468-22.6219-19.2678-26.7609-19.8387-.1712-.0236-.3397-.0356-.5074-.0439,1.7227,6.4249,4.6162,16.1918,7.8952,23.0158,2.6872,5.5923,6.4151,11.8386,8.7556,15.4713.6087.9448,1.9148,1.1194,2.7541.3718,1.9501-1.7369,3.8047-4.1601,5.2248-6.3876,1.7595-2.7599,4.174-9.1064,2.6386-12.5887Z" fill="#5a3e29"/>
  <path d="M17.5961,34.3559c4.6062-10.4468,22.6219-19.2678,26.7609-19.8387.1712-.0236.3397-.0356.5074-.0439-1.7227,6.4249-4.6162,16.1918-7.8952,23.0158-2.6872,5.5923-6.4151,11.8386-8.7556,15.4713-.6087.9448-1.9148,1.1194-2.7541.3718-1.9501-1.7369-3.8047-4.1601-5.2248-6.3876-1.7595-2.7599-4.174-9.1064-2.6386-12.5887Z" fill="#5a3e29"/>
  <path d="M70.8391,69.5164c-.2341,0-.4661-.0377-.6903-.105-1.3762-.4135-4.7304-1.0802-10.0452-.0297-7.1608,1.4154-18.352,6.042-23.4544,16.5561-5.1024,10.5141-2.2836,17.4124,2.4739,22.4554,4.7575,5.0429,8.6111,2.0457,10.9422,0,2.0042-1.7588,6.5757-7.9135,7.8184-9.6052.196-.2667.4887-.4448.8163-.4919,1.496-.215,6.316-1.1521,8.9065-4.8415,1.1567-1.6474,2.3348-4.1271,2.497-5.4025s-.5762-1.8486-1.4647-2.246c-2.5223-1.1281-6.0543-3.6067-6.0963-6.9676-.0433-3.4672,3.5295-4.6623,8.3237-4.6623,4.7942,0,8.367,1.1951,8.3237,4.6623-.042,3.361-3.574,5.8395-6.0963,6.9676-.8885.3974-1.6268.9706-1.4647,2.246s1.3403,3.7551,2.497,5.4025c2.5904,3.6894,7.4105,4.6265,8.9065,4.8415.3276.0471.6204.2251.8163.4919,1.2428,1.6917,5.8142,7.8463,7.8184,9.6052,2.3312,2.0457,6.1847,5.0429,10.9422,0,4.7575-5.0429,7.5763-11.9413,2.4739-22.4554-5.1024-10.5141-16.2936-15.1407-23.4544-16.5561-5.3148-1.0505-8.669-.3838-10.0452.0297-.2242.0674-.4562.105-.6903.105h-.0541Z" fill="#fff"/>
</svg>